#!OML:ASF I:\Actors\actors\Patient Classification 2\Patient 1\Session 1\actor1.ASF
:FULLY-SPECIFIED
:DEGREES
561
root -1.09407 18.7991 4.41766 4.73383 -2.63444 -1.47411
lowerback 6.61302 0.547162 5.47656
upperback -2.72108 1.25897 0.294213
thorax -6.46376 0.396639 -2.91946
lowerneck -14.9746 -5.26513 -2.71387
upperneck 22.9283 -7.50485 3.1017
head 9.98572 -3.35701 0.556474
rclavicle -6.16232e-015 1.82882e-014
rhumerus 32.5783 8.12288 -39.2225
rradius 86.6006
rwrist 33.2185
rhand -40.7014 -48.6163
rfingers 7.12502
rthumb -13.6439 -78.1492
lclavicle -6.16232e-015 1.82882e-014
lhumerus -19.38 -37.1192 81.5528
lradius 121.494
lwrist 53.2199
lhand -20.6016 -18.7409
lfingers 7.12502
lthumb 5.75898 11.1609
rfemur 0 0 0
rtibia 0
rfoot 0 0
rtoes 0
lfemur -7.74381 -7.08325 -11.6245
ltibia 19.8805
lfoot -20.585 13.6192
ltoes -55.3624
562
root -1.0934 18.7984 4.42031 4.68627 -2.90807 -1.40347
lowerback 6.61811 0.541623 5.48495
upperback -2.73425 1.25208 0.277187
thorax -6.48086 0.391736 -2.94149
lowerneck -14.9974 -5.19432 -2.65185
upperneck 23.2161 -7.44462 3.13135
head 10.09 -3.3159 0.561473
rclavicle -2.31087e-015 -1.23246e-014
rhumerus 32.704 11.7013 -38.977
rradius 87.3095
rwrist 33.368
rhand -41.0411 -49.112
rfingers 7.12502
rthumb -13.9712 -78.6226
lclavicle -2.31087e-015 -1.23246e-014
lhumerus -19.4004 -37.0175 81.7222
lradius 121.419
lwrist 52.8834
lhand -20.6079 -18.7953
lfingers 7.12502
lthumb 5.75294 11.1066
rfemur 0 0 0
rtibia 0
rfoot 0 0
rtoes 0
lfemur -7.59128 -7.05416 -11.7536
ltibia 19.865
lfoot -20.7104 13.8403
ltoes -55.3073
563
root -1.09286 18.7972 4.42184 4.63869 -3.17684 -1.37281
lowerback 6.64346 0.555627 5.49304
upperback -2.74946 1.27423 0.28496
thorax -6.50969 0.401305 -2.94111
lowerneck -15.0955 -5.14509 -2.55177
upperneck 23.5558 -7.38515 3.00521
head 10.2194 -3.28779 0.503412
rclavicle -3.65267e-015 0
rhumerus 32.3376 15.3535 -38.5764
rradius 87.9971
rwrist 34.0778
rhand -41.3062 -49.1707
rfingers 7.12502
rthumb -14.2267 -78.6634
lclavicle -3.65267e-015 0
lhumerus -19.4576 -37.0265 81.9627
lradius 121.401
lwrist 52.7022
lhand -20.6336 -18.5696
lfingers 7.12502
lthumb 5.72815 11.3329
rfemur 0 0 0
rtibia 0
rfoot 0 0
rtoes 0
lfemur -7.45687 -7.05 -11.8392
ltibia 19.8629
lfoot -20.8776 14.127
ltoes -55.3692
564
root -1.09195 18.7964 4.42318 4.6255 -3.41383 -1.37354
lowerback 6.59389 0.579261 5.47486
upperback -2.74215 1.30313 0.327406
thorax -6.47192 0.418512 -2.88861
lowerneck -15.2168 -5.08787 -2.46262
upperneck 23.8241 -7.28168 2.78569
head 10.3232 -3.25223 0.42034
rclavicle 9.06955e-015 3.33958e-014
rhumerus 31.7097 18.7629 -38.1899
rradius 88.4209
rwrist 34.9497
rhand -41.6064 -47.8846
rfingers 7.12502
rthumb -14.516 -77.3568
lclavicle 9.06955e-015 3.33958e-014
lhumerus -19.4088 -37.0687 82.1194
lradius 121.422
lwrist 52.7687
lhand -20.6882 -18.2609
lfingers 7.12502
lthumb 5.67543 11.6431
rfemur 0 0 0
rtibia 0
rfoot 0 0
rtoes 0
lfemur -7.38342 -6.99403 -11.8767
ltibia 19.868
lfoot -21.0343 14.3292
ltoes -55.488
565
root -1.09179 18.7946 4.42492 4.5761 -3.56894 -1.31287
lowerback 6.53837 0.604031 5.34844
upperback -2.68773 1.31957 0.33838
thorax -6.38266 0.435744 -2.80637
lowerneck -15.3258 -5.0371 -2.42372
upperneck 24.0076 -7.20512 2.70169
head 10.4033 -3.21909 0.390325
rclavicle 1.23122e-014 2.66371e-014
rhumerus 30.4787 21.8919 -37.4565
rradius 89.3719
rwrist 35.3682
rhand -41.8327 -47.6637
rfingers 7.12502
rthumb -14.734 -77.1201
lclavicle 1.23122e-014 2.66371e-014
lhumerus -19.272 -37.1383 82.165
lradius 121.458
lwrist 52.8425
lhand -20.6653 -18.1284
lfingers 7.12502
lthumb 5.69749 11.775
rfemur 0 0 0
rtibia 0
rfoot 0 0
rtoes 0
lfemur -7.30216 -6.86948 -11.9658
ltibia 19.8883
lfoot -21.0989 14.3159
ltoes -55.4714
